<svg xmlns="http://www.w3.org/2000/svg" width="151.0334014892578" height="72.84999084472656" style="width:151.0334014892578px;height:72.84999084472656px;font-family:Asana-Math, Asana;background:transparent;"><g><g><g style="transform:matrix(1,0,0,1,2,31.5);"><path d="M543 227C543 337 459 353 377 365C434 385 459 397 490 425C536 464 559 511 559 562C559 644 501 692 401 692C399 692 389 692 374 691L311 690C299 689 263 689 251 689C232 689 201 690 152 691L100 692L97 664L150 662C174 661 185 653 185 635C185 621 181 589 176 559L89 55C85 37 73 30 31 23L26 -3L63 -2C90 0 105 0 117 0C128 0 154 -1 180 -2L217 -3L237 -4C256 -5 269 -6 277 -6C392 -6 543 87 543 227ZM166 41L217 340L302 340C405 340 455 298 455 211C455 108 382 34 282 34C228 34 207 38 166 41ZM352 655C433 655 473 619 473 544C473 439 399 376 275 376L223 376L272 650C288 650 329 655 352 655ZM715 664L771 662C795 661 806 653 806 635C806 621 802 589 797 559L722 125C706 34 704 32 664 28L623 25L619 -3L661 -2C708 0 727 0 751 0L848 -3L874 -3L877 25L828 28C801 30 792 38 792 58C792 67 793 76 796 93L897 648C926 654 946 656 973 656C1060 656 1106 617 1106 543C1106 448 1028 378 924 378L880 378L877 367C1011 172 1042 124 1117 -3L1202 0C1203 0 1217 -1 1236 -3L1249 -3L1249 24C1209 29 1198 37 1169 79L985 354C1040 364 1069 376 1105 402C1163 444 1194 499 1194 560C1194 646 1130 693 1019 691L718 691Z" stroke="rgb(0, 0, 0)" stroke-width="8" fill="rgb(0, 0, 0)" style="transform:matrix(0.017,0,0,-0.017,0,0);"></path></g><g style="transform:matrix(1,0,0,1,33.0167236328125,31.5);"><path d="M604 347L604 406L65 406L65 347ZM604 134L604 193L65 193L65 134Z" stroke="rgb(0, 0, 0)" stroke-width="8" fill="rgb(0, 0, 0)" style="transform:matrix(0.017,0,0,-0.017,0,0);"></path></g><g style="transform:matrix(1,0,0,1,49.4666748046875,31.5);"><path d="M265 23L265 -3C452 -3 452 0 488 0C524 0 524 -3 717 -3L717 82C602 77 556 81 371 77L553 270C650 373 680 428 680 503C680 618 602 689 475 689C403 689 354 669 305 619L288 483L317 483L330 529C346 587 382 612 449 612C535 612 590 558 590 473C590 398 548 324 435 204ZM916 345C875 326 858 315 836 294C798 256 778 211 778 159C778 56 861 -20 974 -20C1104 -20 1212 82 1212 206C1212 286 1175 329 1061 381C1152 443 1184 485 1184 545C1184 631 1113 689 1007 689C888 689 801 613 801 508C801 440 828 402 916 345ZM1032 295C1095 267 1133 218 1133 164C1133 80 1070 14 989 14C904 14 849 74 849 167C849 240 878 286 952 331ZM971 423C908 454 876 494 876 544C876 610 924 655 995 655C1068 655 1116 607 1116 534C1116 477 1091 438 1026 396Z" stroke="rgb(0, 0, 0)" stroke-width="8" fill="rgb(0, 0, 0)" style="transform:matrix(0.017,0,0,-0.017,0,0);"></path></g><g style="transform:matrix(1,0,0,1,78.300048828125,31.5);"><path d="M604 241L604 300L364 300L364 538L305 538L305 300L65 300L65 241L305 241L305 0L364 0L364 241Z" stroke="rgb(0, 0, 0)" stroke-width="8" fill="rgb(0, 0, 0)" style="transform:matrix(0.017,0,0,-0.017,0,0);"></path></g><g style="transform:matrix(1,0,0,1,93.050048828125,31.5);"><path d="" stroke="rgb(0, 0, 0)" stroke-width="8" fill="rgb(0, 0, 0)" style="transform:matrix(0.017,0,0,-0.017,0,0);"></path></g><g><g><g><g style="transform:matrix(1,0,0,1,111.28338623046875,19);"><path d="M418 -3L418 27L366 30C311 33 301 44 301 96L301 700L60 598L67 548L217 614L217 96C217 44 206 33 152 30L96 27L96 -3C250 0 250 0 261 0C292 0 402 -3 418 -3ZM762 689C607 689 528 566 528 324C528 207 549 106 584 57C619 8 675 -20 737 -20C888 -20 964 110 964 366C964 585 899 689 762 689ZM744 654C841 654 880 556 880 316C880 103 842 15 750 15C653 15 612 116 612 360C612 571 649 654 744 654ZM1261 689C1106 689 1027 566 1027 324C1027 207 1048 106 1083 57C1118 8 1174 -20 1236 -20C1387 -20 1463 110 1463 366C1463 585 1398 689 1261 689ZM1243 654C1340 654 1379 556 1379 316C1379 103 1341 15 1249 15C1152 15 1111 116 1111 360C1111 571 1148 654 1243 654Z" stroke="rgb(0, 0, 0)" stroke-width="8" fill="rgb(0, 0, 0)" style="transform:matrix(0.017,0,0,-0.017,0,0);"></path></g></g></g><g><g><g style="transform:matrix(1,0,0,1,98.9833984375,67.34999084472656);"><path d="M16 23L16 -3C203 -3 203 0 239 0C275 0 275 -3 468 -3L468 82C353 77 307 81 122 77L304 270C401 373 431 428 431 503C431 618 353 689 226 689C154 689 105 669 56 619L39 483L68 483L81 529C97 587 133 612 200 612C286 612 341 558 341 473C341 398 299 324 186 204Z" stroke="rgb(0, 0, 0)" stroke-width="8" fill="rgb(0, 0, 0)" style="transform:matrix(0.017,0,0,-0.017,0,0);"></path></g><g><g><g><g><svg x="107.4666748046875" style="overflow:visible;" y="29.183334350585938" height="33" width="5.9499969482421875"><path d=" M 4.63 1.19 q 0.00 -0.08 -0.07 -0.08 q -0.02 0.00 -0.07 0.02 q -0.88 0.56 -1.54 1.31 t -1.20 1.90 t -0.83 2.81 t -0.29 3.84 v 0.63 h 1.18 v -0.63 q 0.00 -1.21 0.04 -2.11 t 0.20 -2.07 t 0.43 -2.06 t 0.80 -1.77 t 1.25 -1.51 q 0.11 -0.10 0.11 -0.30 z   M 0.63 11.63 v 9.75 h 1.18 v -9.75 z" style="fill:rgb(0, 0, 0);stroke-width:1px;stroke:none;"></path><path d=" M 4.63 31.81 q 0.00 0.08 -0.07 0.08 q -0.02 0.00 -0.07 -0.02 q -0.88 -0.56 -1.54 -1.31 t -1.20 -1.90 t -0.83 -2.81 t -0.29 -3.84 v -0.63 h 1.18 v 0.63 q 0.00 1.21 0.04 2.11 t 0.20 2.07 t 0.43 2.06 t 0.80 1.77 t 1.25 1.51 q 0.11 0.10 0.11 0.30 z" style="fill:rgb(0, 0, 0);stroke-width:1px;stroke:none;"></path></svg></g><g><g><g><g style="transform:matrix(1,0,0,1,125.28338623046875,41.583334350585936);"><path d="M236 722L224 733C179 711 138 697 64 691L60 670L108 670C126 670 142 667 142 647C142 641 142 632 140 622L98 388C78 272 36 80 10 2L17 -9L86 7C94 64 108 164 148 236C193 317 296 414 338 414C349 414 360 407 360 393C360 375 355 342 345 303L294 107C288 85 281 55 281 31C281 6 291 -9 312 -9C344 -9 412 41 471 85L461 103L435 86C412 71 386 56 374 56C367 56 361 65 361 76C361 88 364 101 368 116L432 372C438 398 443 423 443 447C443 464 437 482 411 482C376 482 299 437 231 374C198 343 172 308 144 273L140 275Z" stroke="rgb(0, 0, 0)" stroke-width="8" fill="rgb(0, 0, 0)" style="transform:matrix(0.0119,0,0,-0.0119,0,0);"></path></g></g></g><g><g><g style="transform:matrix(1,0,0,1,113.41668701171875,59.583334350585936);"><path d="M131 331C152 512 241 611 421 665L379 689C283 657 242 637 191 593C88 506 32 384 32 247C32 82 112 -20 241 -20C371 -20 468 83 468 219C468 334 399 409 293 409C216 409 184 370 131 331ZM255 349C331 349 382 283 382 184C382 80 331 13 254 13C169 13 123 86 123 220C123 255 127 274 138 291C160 325 207 349 255 349ZM779 181L779 106C779 46 768 32 719 30L657 27L657 -3C790 0 790 0 814 0C838 0 838 0 971 -3L971 27L923 30C874 33 863 46 863 106L863 181C922 181 943 180 971 177L971 248L863 245L864 697L784 667L501 204L501 181ZM779 245L564 245L779 597ZM1166 345C1125 326 1108 315 1086 294C1048 256 1028 211 1028 159C1028 56 1111 -20 1224 -20C1354 -20 1462 82 1462 206C1462 286 1425 329 1311 381C1402 443 1434 485 1434 545C1434 631 1363 689 1257 689C1138 689 1051 613 1051 508C1051 440 1078 402 1166 345ZM1282 295C1345 267 1383 218 1383 164C1383 80 1320 14 1239 14C1154 14 1099 74 1099 167C1099 240 1128 286 1202 331ZM1221 423C1158 454 1126 494 1126 544C1126 610 1174 655 1245 655C1318 655 1366 607 1366 534C1366 477 1341 438 1276 396ZM1760 689C1605 689 1526 566 1526 324C1526 207 1547 106 1582 57C1617 8 1673 -20 1735 -20C1886 -20 1962 110 1962 366C1962 585 1897 689 1760 689ZM1742 654C1839 654 1878 556 1878 316C1878 103 1840 15 1748 15C1651 15 1610 116 1610 360C1610 571 1647 654 1742 654ZM2259 689C2104 689 2025 566 2025 324C2025 207 2046 106 2081 57C2116 8 2172 -20 2234 -20C2385 -20 2461 110 2461 366C2461 585 2396 689 2259 689ZM2241 654C2338 654 2377 556 2377 316C2377 103 2339 15 2247 15C2150 15 2109 116 2109 360C2109 571 2146 654 2241 654Z" stroke="rgb(0, 0, 0)" stroke-width="8" fill="rgb(0, 0, 0)" style="transform:matrix(0.0119,0,0,-0.0119,0,0);"></path></g></g></g><line style="fill:none;stroke-width:1px;stroke:rgb(0, 0, 0);" x1="113.41668701171875" y1="47.19999694824219" x2="143.08334350585938" y2="47.19999694824219"></line></g><g><svg x="143.0833740234375" style="overflow:visible;" y="29.183334350585938" height="33" width="5.95001220703125"><path d=" M 0.83 1.19 q 0.00 -0.08 0.07 -0.08 q 0.02 0.00 0.07 0.02 q 0.88 0.56 1.54 1.31 t 1.20 1.90 t 0.83 2.81 t 0.29 3.84 v 0.63 h -1.18 v -0.63 q 0.00 -1.21 -0.04 -2.11 t -0.20 -2.07 t -0.43 -2.06 t -0.80 -1.77 t -1.25 -1.51 q -0.11 -0.10 -0.11 -0.30 z  M 4.83 11.63 v 9.75 h -1.18 v -9.75 z" style="fill:rgb(0, 0, 0);stroke-width:1px;stroke:none;"></path><path d=" M 0.83 31.81 q 0.00 0.08 0.07 0.08 q 0.02 0.00 0.07 -0.02 q 0.88 -0.56 1.54 -1.31 t 1.20 -1.90 t 0.83 -2.81 t 0.29 -3.84 v -0.63 h -1.18 v 0.63 q 0.00 1.21 -0.04 2.11 t -0.20 2.07 t -0.43 2.06 t -0.80 1.77 t -1.25 1.51 q -0.11 0.10 -0.11 0.30 z" style="fill:rgb(0, 0, 0);stroke-width:1px;stroke:none;"></path></svg></g></g></g></g></g></g><line style="fill:none;stroke-width:1px;stroke:rgb(0, 0, 0);" x1="98.9833984375" y1="27.25" x2="149.0334014892578" y2="27.25"></line></g></g></g></svg>