<svg xmlns="http://www.w3.org/2000/svg" width="209.5374984741211" height="71.36250305175781" style="width:209.5374984741211px;height:71.36250305175781px;font-family:Asana-Math, Asana;background:transparent;"><g><g><g style="transform:matrix(1,0,0,1,2,31);"><path d="M349 664L352 692L238 689C222 689 204 689 161 690L97 692L94 664L141 662C165 661 176 653 176 635L81 55C77 37 65 30 21 23L16 -3L57 -2C88 -1 150 0 170 0L467 -1L500 0C499 25 510 103 523 165L492 165L475 103C466 71 457 54 448 49C435 44 371 39 304 39C255 39 228 40 162 46C165 64 256 605 256 613C263 651 270 658 307 661ZM663 471C663 386 701 339 785 319L880 296C934 283 961 248 961 191C961 96 890 30 787 30C733 30 695 42 651 73L651 172L621 172C615 117 608 72 597 20C646 -5 699 -18 752 -18C907 -18 1040 99 1040 234C1040 313 997 355 896 377L831 391C765 405 735 442 735 508C735 595 802 658 894 658C943 658 976 645 1006 613L1006 537L1036 537C1040 591 1047 629 1061 672C1016 696 976 706 929 706C805 706 663 614 663 471ZM1215 664L1271 662C1295 661 1306 653 1306 635C1306 621 1302 589 1297 559L1222 125C1206 34 1204 32 1164 28L1123 25L1119 -3L1161 -2C1208 0 1227 0 1251 0L1348 -3L1374 -3L1377 25L1328 28C1301 30 1292 38 1292 58C1292 67 1293 76 1296 93L1397 648C1426 654 1446 656 1473 656C1560 656 1606 617 1606 543C1606 448 1528 378 1424 378L1380 378L1377 367C1511 172 1542 124 1617 -3L1702 0C1703 0 1717 -1 1736 -3L1749 -3L1749 24C1709 29 1698 37 1669 79L1485 354C1540 364 1569 376 1605 402C1663 444 1694 499 1694 560C1694 646 1630 693 1519 691L1218 691Z" stroke="rgb(255, 255, 255)" stroke-width="8" fill="rgb(255, 255, 255)" style="transform:matrix(0.017,0,0,-0.017,0,0);"></path></g><g style="transform:matrix(1,0,0,1,41.2125244140625,31);"><path d="M604 347L604 406L65 406L65 347ZM604 134L604 193L65 193L65 134Z" stroke="rgb(255, 255, 255)" stroke-width="8" fill="rgb(255, 255, 255)" style="transform:matrix(0.017,0,0,-0.017,0,0);"></path></g><g style="transform:matrix(1,0,0,1,57.362548828125,31);"><path d="M667 -3L667 27L615 30C560 33 550 44 550 96L550 700L309 598L316 548L466 614L466 96C466 44 455 33 401 30L345 27L345 -3C499 0 499 0 510 0C541 0 651 -3 667 -3ZM1207 253C1207 366 1126 446 1012 446C964 446 928 443 875 396L875 605L1180 604L1180 689L823 690L823 322L843 316C890 363 917 377 966 377C1062 377 1122 309 1122 201C1122 90 1058 25 949 25C895 25 845 43 831 69L785 151L761 137C784 80 796 48 810 4C838 -11 878 -20 921 -20C1049 -20 1207 89 1207 253ZM1510 689C1355 689 1276 566 1276 324C1276 207 1297 106 1332 57C1367 8 1423 -20 1485 -20C1636 -20 1712 110 1712 366C1712 585 1647 689 1510 689ZM1492 654C1589 654 1628 556 1628 316C1628 103 1590 15 1498 15C1401 15 1360 116 1360 360C1360 571 1397 654 1492 654ZM2009 689C1854 689 1775 566 1775 324C1775 207 1796 106 1831 57C1866 8 1922 -20 1984 -20C2135 -20 2211 110 2211 366C2211 585 2146 689 2009 689ZM1991 654C2088 654 2127 556 2127 316C2127 103 2089 15 1997 15C1900 15 1859 116 1859 360C1859 571 1896 654 1991 654ZM2508 689C2353 689 2274 566 2274 324C2274 207 2295 106 2330 57C2365 8 2421 -20 2483 -20C2634 -20 2710 110 2710 366C2710 585 2645 689 2508 689ZM2490 654C2587 654 2626 556 2626 316C2626 103 2588 15 2496 15C2399 15 2358 116 2358 360C2358 571 2395 654 2490 654Z" stroke="rgb(255, 255, 255)" stroke-width="8" fill="rgb(255, 255, 255)" style="transform:matrix(0.017,0,0,-0.017,0,0);"></path></g><g style="transform:matrix(1,0,0,1,111.4375,31);"><path d="M604 241L604 300L364 300L364 538L305 538L305 300L65 300L65 241L305 241L305 0L364 0L364 241Z" stroke="rgb(255, 255, 255)" stroke-width="8" fill="rgb(255, 255, 255)" style="transform:matrix(0.017,0,0,-0.017,0,0);"></path></g><g><g><g><g style="transform:matrix(1,0,0,1,146.4000244140625,19);"><path d="M16 23L16 -3C203 -3 203 0 239 0C275 0 275 -3 468 -3L468 82C353 77 307 81 122 77L304 270C401 373 431 428 431 503C431 618 353 689 226 689C154 689 105 669 56 619L39 483L68 483L81 529C97 587 133 612 200 612C286 612 341 558 341 473C341 398 299 324 186 204ZM958 253C958 366 877 446 763 446C715 446 679 443 626 396L626 605L931 604L931 689L574 690L574 322L594 316C641 363 668 377 717 377C813 377 873 309 873 201C873 90 809 25 700 25C646 25 596 43 582 69L536 151L512 137C535 80 547 48 561 4C589 -11 629 -20 672 -20C800 -20 958 89 958 253ZM1261 689C1106 689 1027 566 1027 324C1027 207 1048 106 1083 57C1118 8 1174 -20 1236 -20C1387 -20 1463 110 1463 366C1463 585 1398 689 1261 689ZM1243 654C1340 654 1379 556 1379 316C1379 103 1341 15 1249 15C1152 15 1111 116 1111 360C1111 571 1148 654 1243 654ZM1760 689C1605 689 1526 566 1526 324C1526 207 1547 106 1582 57C1617 8 1673 -20 1735 -20C1886 -20 1962 110 1962 366C1962 585 1897 689 1760 689ZM1742 654C1839 654 1878 556 1878 316C1878 103 1840 15 1748 15C1651 15 1610 116 1610 360C1610 571 1647 654 1742 654ZM2405 603L2043 -1L2153 -1L2493 659L2493 689L2040 689L2040 477L2070 477L2077 533C2085 595 2092 603 2138 603Z" stroke="rgb(255, 255, 255)" stroke-width="8" fill="rgb(255, 255, 255)" style="transform:matrix(0.017,0,0,-0.017,0,0);"></path></g></g></g><g><g><g style="transform:matrix(1,0,0,1,127.6875,66.36251831054688);"><path d="M16 23L16 -3C203 -3 203 0 239 0C275 0 275 -3 468 -3L468 82C353 77 307 81 122 77L304 270C401 373 431 428 431 503C431 618 353 689 226 689C154 689 105 669 56 619L39 483L68 483L81 529C97 587 133 612 200 612C286 612 341 558 341 473C341 398 299 324 186 204Z" stroke="rgb(255, 255, 255)" stroke-width="8" fill="rgb(255, 255, 255)" style="transform:matrix(0.017,0,0,-0.017,0,0);"></path></g><g><g><g><g><svg x="136.16253662109375" style="overflow:visible;" y="28.1875" height="33" width="5.950000286102295"><path d=" M 4.63 1.19 q 0.00 -0.08 -0.07 -0.08 q -0.02 0.00 -0.07 0.02 q -0.88 0.56 -1.54 1.31 t -1.20 1.90 t -0.83 2.81 t -0.29 3.84 v 0.63 h 1.18 v -0.63 q 0.00 -1.21 0.04 -2.11 t 0.20 -2.07 t 0.43 -2.06 t 0.80 -1.77 t 1.25 -1.51 q 0.11 -0.10 0.11 -0.30 z   M 0.63 11.63 v 9.75 h 1.18 v -9.75 z" style="fill:rgb(255, 255, 255);stroke-width:1px;stroke:none;"></path><path d=" M 4.63 31.81 q 0.00 0.08 -0.07 0.08 q -0.02 0.00 -0.07 -0.02 q -0.88 -0.56 -1.54 -1.31 t -1.20 -1.90 t -0.83 -2.81 t -0.29 -3.84 v -0.63 h 1.18 v 0.63 q 0.00 1.21 0.04 2.11 t 0.20 2.07 t 0.43 2.06 t 0.80 1.77 t 1.25 1.51 q 0.11 0.10 0.11 0.30 z" style="fill:rgb(255, 255, 255);stroke-width:1px;stroke:none;"></path></svg></g><g><g><g><g style="transform:matrix(1,0,0,1,142.9000244140625,40.687506103515624);"><path d="M236 722L224 733C179 711 138 697 64 691L60 670L108 670C126 670 142 667 142 647C142 641 142 632 140 622L98 388C78 272 36 80 10 2L17 -9L86 7C94 64 108 164 148 236C193 317 296 414 338 414C349 414 360 407 360 393C360 375 355 342 345 303L294 107C288 85 281 55 281 31C281 6 291 -9 312 -9C344 -9 412 41 471 85L461 103L435 86C412 71 386 56 374 56C367 56 361 65 361 76C361 88 364 101 368 116L432 372C438 398 443 423 443 447C443 464 437 482 411 482C376 482 299 437 231 374C198 343 172 308 144 273L140 275Z" stroke="rgb(255, 255, 255)" stroke-width="8" fill="rgb(255, 255, 255)" style="transform:matrix(0.0119,0,0,-0.0119,0,0);"></path></g><g style="transform:matrix(1,0,0,1,153.38751220703125,40.687506103515624);"><path d="M555 243L555 299L51 299L51 243Z" stroke="rgb(255, 255, 255)" stroke-width="8" fill="rgb(255, 255, 255)" style="transform:matrix(0.0119,0,0,-0.0119,0,0);"></path></g><g style="transform:matrix(1,0,0,1,162.175048828125,40.687506103515624);"><path d="M667 -3L667 27L615 30C560 33 550 44 550 96L550 700L309 598L316 548L466 614L466 96C466 44 455 33 401 30L345 27L345 -3C499 0 499 0 510 0C541 0 651 -3 667 -3ZM1011 689C856 689 777 566 777 324C777 207 798 106 833 57C868 8 924 -20 986 -20C1137 -20 1213 110 1213 366C1213 585 1148 689 1011 689ZM993 654C1090 654 1129 556 1129 316C1129 103 1091 15 999 15C902 15 861 116 861 360C861 571 898 654 993 654ZM1665 -3L1665 27L1613 30C1558 33 1548 44 1548 96L1548 700L1307 598L1314 548L1464 614L1464 96C1464 44 1453 33 1399 30L1343 27L1343 -3C1497 0 1497 0 1508 0C1539 0 1649 -3 1665 -3ZM1762 23L1762 -3C1949 -3 1949 0 1985 0C2021 0 2021 -3 2214 -3L2214 82C2099 77 2053 81 1868 77L2050 270C2147 373 2177 428 2177 503C2177 618 2099 689 1972 689C1900 689 1851 669 1802 619L1785 483L1814 483L1827 529C1843 587 1879 612 1946 612C2032 612 2087 558 2087 473C2087 398 2045 324 1932 204ZM2704 253C2704 366 2623 446 2509 446C2461 446 2425 443 2372 396L2372 605L2677 604L2677 689L2320 690L2320 322L2340 316C2387 363 2414 377 2463 377C2559 377 2619 309 2619 201C2619 90 2555 25 2446 25C2392 25 2342 43 2328 69L2282 151L2258 137C2281 80 2293 48 2307 4C2335 -11 2375 -20 2418 -20C2546 -20 2704 89 2704 253ZM3007 689C2852 689 2773 566 2773 324C2773 207 2794 106 2829 57C2864 8 2920 -20 2982 -20C3133 -20 3209 110 3209 366C3209 585 3144 689 3007 689ZM2989 654C3086 654 3125 556 3125 316C3125 103 3087 15 2995 15C2898 15 2857 116 2857 360C2857 571 2894 654 2989 654Z" stroke="rgb(255, 255, 255)" stroke-width="8" fill="rgb(255, 255, 255)" style="transform:matrix(0.0119,0,0,-0.0119,0,0);"></path></g></g></g><g><g><g style="transform:matrix(1,0,0,1,154.0250244140625,58.487493896484374);"><path d="M418 -3L418 27L366 30C311 33 301 44 301 96L301 700L60 598L67 548L217 614L217 96C217 44 206 33 152 30L96 27L96 -3C250 0 250 0 261 0C292 0 402 -3 418 -3ZM515 23L515 -3C702 -3 702 0 738 0C774 0 774 -3 967 -3L967 82C852 77 806 81 621 77L803 270C900 373 930 428 930 503C930 618 852 689 725 689C653 689 604 669 555 619L538 483L567 483L580 529C596 587 632 612 699 612C785 612 840 558 840 473C840 398 798 324 685 204ZM1094 -20C1205 16 1253 39 1307 85C1404 168 1455 283 1455 417C1455 586 1374 689 1242 689C1114 689 1018 589 1018 455C1018 340 1093 256 1197 256C1231 256 1270 267 1288 282L1358 340C1350 172 1241 49 1060 5L1060 -3ZM1238 656C1283 656 1316 637 1338 597C1356 565 1368 516 1368 471C1368 379 1315 317 1238 317C1158 317 1104 388 1104 492C1104 593 1156 656 1238 656ZM1628 331C1649 512 1738 611 1918 665L1876 689C1780 657 1739 637 1688 593C1585 506 1529 384 1529 247C1529 82 1609 -20 1738 -20C1868 -20 1965 83 1965 219C1965 334 1896 409 1790 409C1713 409 1681 370 1628 331ZM1752 349C1828 349 1879 283 1879 184C1879 80 1828 13 1751 13C1666 13 1620 86 1620 220C1620 255 1624 274 1635 291C1657 325 1704 349 1752 349ZM2259 689C2104 689 2025 566 2025 324C2025 207 2046 106 2081 57C2116 8 2172 -20 2234 -20C2385 -20 2461 110 2461 366C2461 585 2396 689 2259 689ZM2241 654C2338 654 2377 556 2377 316C2377 103 2339 15 2247 15C2150 15 2109 116 2109 360C2109 571 2146 654 2241 654ZM2758 689C2603 689 2524 566 2524 324C2524 207 2545 106 2580 57C2615 8 2671 -20 2733 -20C2884 -20 2960 110 2960 366C2960 585 2895 689 2758 689ZM2740 654C2837 654 2876 556 2876 316C2876 103 2838 15 2746 15C2649 15 2608 116 2608 360C2608 571 2645 654 2740 654Z" stroke="rgb(255, 255, 255)" stroke-width="8" fill="rgb(255, 255, 255)" style="transform:matrix(0.0119,0,0,-0.0119,0,0);"></path></g></g></g><line style="fill:none;stroke-width:1px;stroke:rgb(255, 255, 255);" x1="142.112548828125" y1="46.212493896484375" x2="201.550048828125" y2="46.212493896484375"></line></g><g><svg x="201.550048828125" style="overflow:visible;" y="28.1875" height="33" width="5.950000286102295"><path d=" M 0.83 1.19 q 0.00 -0.08 0.07 -0.08 q 0.02 0.00 0.07 0.02 q 0.88 0.56 1.54 1.31 t 1.20 1.90 t 0.83 2.81 t 0.29 3.84 v 0.63 h -1.18 v -0.63 q 0.00 -1.21 -0.04 -2.11 t -0.20 -2.07 t -0.43 -2.06 t -0.80 -1.77 t -1.25 -1.51 q -0.11 -0.10 -0.11 -0.30 z  M 4.83 11.63 v 9.75 h -1.18 v -9.75 z" style="fill:rgb(255, 255, 255);stroke-width:1px;stroke:none;"></path><path d=" M 0.83 31.81 q 0.00 0.08 0.07 0.08 q 0.02 0.00 0.07 -0.02 q 0.88 -0.56 1.54 -1.31 t 1.20 -1.90 t 0.83 -2.81 t 0.29 -3.84 v -0.63 h -1.18 v 0.63 q 0.00 1.21 -0.04 2.11 t -0.20 2.07 t -0.43 2.06 t -0.80 1.77 t -1.25 1.51 q -0.11 0.10 -0.11 0.30 z" style="fill:rgb(255, 255, 255);stroke-width:1px;stroke:none;"></path></svg></g></g></g></g></g></g><line style="fill:none;stroke-width:1px;stroke:rgb(255, 255, 255);" x1="127.6875" y1="26.550003051757812" x2="207.5374984741211" y2="26.550003051757812"></line></g></g></g></svg>