<svg xmlns="http://www.w3.org/2000/svg" width="59.316650390625" height="47.5" style="width:59.316650390625px;height:47.5px;font-family:Asana-Math, Asana;background:transparent;"><g><g><g style="transform:matrix(1,0,0,1,2,31.5);"><path d="M20 -3C116 -1 174 0 261 0C339 0 456 -1 517 -2L583 -3C585 38 593 95 606 164L580 164L573 142L541 52C496 43 458 39 414 39L133 39L637 672L637 692L475 689L449 689L120 692C120 645 117 606 109 533L135 533C138 555 144 580 156 619L162 639C218 649 256 652 342 652L522 652L20 19Z" stroke="rgb(255, 255, 255)" stroke-width="8" fill="rgb(255, 255, 255)" style="transform:matrix(0.017,0,0,-0.017,0,0);"></path></g><g style="transform:matrix(1,0,0,1,18.41668701171875,31.5);"><path d="M604 347L604 406L65 406L65 347ZM604 134L604 193L65 193L65 134Z" stroke="rgb(255, 255, 255)" stroke-width="8" fill="rgb(255, 255, 255)" style="transform:matrix(0.017,0,0,-0.017,0,0);"></path></g><g><g><g><g style="transform:matrix(1,0,0,1,40.54998779296875,19);"><path d="M567 55C567 39 552 30 524 28L480 25L480 -3C582 0 582 0 602 0C622 0 622 0 724 -3L724 25L698 28C651 35 650 35 642 80L555 705L509 705L136 112C100 56 82 40 48 32L28 27L28 -3C120 0 120 0 140 0C159 0 161 0 247 -3L247 25L195 28C179 29 164 38 164 47C164 55 171 69 190 102L292 277L538 277L563 89L563 86C563 84 567 69 567 55ZM496 601L533 313L317 313Z" stroke="rgb(255, 255, 255)" stroke-width="8" fill="rgb(255, 255, 255)" style="transform:matrix(0.017,0,0,-0.017,0,0);"></path></g></g></g><g><g><g style="transform:matrix(1,0,0,1,36.566650390625,45);"><path d="M108 471C108 386 146 339 230 319L325 296C379 283 406 248 406 191C406 96 335 30 232 30C178 30 140 42 96 73L96 172L66 172C60 117 53 72 42 20C91 -5 144 -18 197 -18C352 -18 485 99 485 234C485 313 442 355 341 377L276 391C210 405 180 442 180 508C180 595 247 658 339 658C388 658 421 645 451 613L451 537L481 537C485 591 492 629 506 672C461 696 421 706 374 706C250 706 108 614 108 471ZM660 664L716 662C740 661 751 653 751 635C751 621 747 589 742 559L667 125C651 34 649 32 609 28L568 25L564 -3L606 -2C653 0 672 0 696 0L793 -3L819 -3L822 25L773 28C746 30 737 38 737 58C737 67 738 76 741 93L842 648C871 654 891 656 918 656C1005 656 1051 617 1051 543C1051 448 973 378 869 378L825 378L822 367C956 172 987 124 1062 -3L1147 0C1148 0 1162 -1 1181 -3L1194 -3L1194 24C1154 29 1143 37 1114 79L930 354C985 364 1014 376 1050 402C1108 444 1139 499 1139 560C1139 646 1075 693 964 691L663 691Z" stroke="rgb(255, 255, 255)" stroke-width="8" fill="rgb(255, 255, 255)" style="transform:matrix(0.017,0,0,-0.017,0,0);"></path></g></g></g><line style="fill:none;stroke-width:1px;stroke:rgb(255, 255, 255);" x1="36.566650390625" y1="27.25" x2="57.316650390625" y2="27.25"></line></g></g></g></svg>